<svg width="50" height="50" viewBox="0 0 50 50" xmlns="http://www.w3.org/2000/svg">
  <!-- Baby bottle logo for navbar -->
  <path d="M16 42 V20 C16 15 18 14 25 14 C32 14 34 15 34 20 V42" fill="#ffffff" stroke="#8860d0" stroke-width="2" />
  
  <!-- Bottle neck -->
  <path d="M20 14 V9 C20 7 30 7 30 9 V14" fill="#ffffff" stroke="#8860d0" stroke-width="2" />
  
  <!-- Bottle top -->
  <ellipse cx="25" cy="8" rx="5" ry="2" fill="#8860d0" />
  
  <!-- Nipple -->
  <path d="M23 8 V5 C23 4 27 4 27 5 V8" fill="#ffffff" stroke="#8860d0" stroke-width="1" />
  <ellipse cx="25" cy="4" rx="2" ry="1" fill="#8860d0" />
  
  <!-- Liquid level -->
  <path d="M16 42 V35 C16 35 18 36 25 36 C32 36 34 35 34 35 V42" fill="#dcd0ff" opacity="0.5" />
  
  <!-- Base of the bottle -->
  <ellipse cx="25" cy="42" rx="9" ry="3" fill="#8860d0" opacity="0.9" />
</svg>